<svg xmlns="http://www.w3.org/2000/svg" width="248" height="248" viewBox="0 0 248 248" role="img" aria-label="QR code for Our StoryBook">
<rect width="100%" height="100%" fill="#fffaf0"/>
<g fill="#34231b">
<rect x="8" y="8" width="8" height="8"/>
<rect x="16" y="8" width="8" height="8"/>
<rect x="24" y="8" width="8" height="8"/>
<rect x="32" y="8" width="8" height="8"/>
<rect x="40" y="8" width="8" height="8"/>
<rect x="48" y="8" width="8" height="8"/>
<rect x="56" y="8" width="8" height="8"/>
<rect x="72" y="8" width="8" height="8"/>
<rect x="80" y="8" width="8" height="8"/>
<rect x="128" y="8" width="8" height="8"/>
<rect x="136" y="8" width="8" height="8"/>
<rect x="144" y="8" width="8" height="8"/>
<rect x="152" y="8" width="8" height="8"/>
<rect x="160" y="8" width="8" height="8"/>
<rect x="184" y="8" width="8" height="8"/>
<rect x="192" y="8" width="8" height="8"/>
<rect x="200" y="8" width="8" height="8"/>
<rect x="208" y="8" width="8" height="8"/>
<rect x="216" y="8" width="8" height="8"/>
<rect x="224" y="8" width="8" height="8"/>
<rect x="232" y="8" width="8" height="8"/>
<rect x="8" y="16" width="8" height="8"/>
<rect x="56" y="16" width="8" height="8"/>
<rect x="120" y="16" width="8" height="8"/>
<rect x="128" y="16" width="8" height="8"/>
<rect x="152" y="16" width="8" height="8"/>
<rect x="184" y="16" width="8" height="8"/>
<rect x="232" y="16" width="8" height="8"/>
<rect x="8" y="24" width="8" height="8"/>
<rect x="24" y="24" width="8" height="8"/>
<rect x="32" y="24" width="8" height="8"/>
<rect x="40" y="24" width="8" height="8"/>
<rect x="56" y="24" width="8" height="8"/>
<rect x="72" y="24" width="8" height="8"/>
<rect x="96" y="24" width="8" height="8"/>
<rect x="104" y="24" width="8" height="8"/>
<rect x="112" y="24" width="8" height="8"/>
<rect x="120" y="24" width="8" height="8"/>
<rect x="128" y="24" width="8" height="8"/>
<rect x="184" y="24" width="8" height="8"/>
<rect x="200" y="24" width="8" height="8"/>
<rect x="208" y="24" width="8" height="8"/>
<rect x="216" y="24" width="8" height="8"/>
<rect x="232" y="24" width="8" height="8"/>
<rect x="8" y="32" width="8" height="8"/>
<rect x="24" y="32" width="8" height="8"/>
<rect x="32" y="32" width="8" height="8"/>
<rect x="40" y="32" width="8" height="8"/>
<rect x="56" y="32" width="8" height="8"/>
<rect x="72" y="32" width="8" height="8"/>
<rect x="80" y="32" width="8" height="8"/>
<rect x="96" y="32" width="8" height="8"/>
<rect x="136" y="32" width="8" height="8"/>
<rect x="144" y="32" width="8" height="8"/>
<rect x="160" y="32" width="8" height="8"/>
<rect x="184" y="32" width="8" height="8"/>
<rect x="200" y="32" width="8" height="8"/>
<rect x="208" y="32" width="8" height="8"/>
<rect x="216" y="32" width="8" height="8"/>
<rect x="232" y="32" width="8" height="8"/>
<rect x="8" y="40" width="8" height="8"/>
<rect x="24" y="40" width="8" height="8"/>
<rect x="32" y="40" width="8" height="8"/>
<rect x="40" y="40" width="8" height="8"/>
<rect x="56" y="40" width="8" height="8"/>
<rect x="72" y="40" width="8" height="8"/>
<rect x="80" y="40" width="8" height="8"/>
<rect x="88" y="40" width="8" height="8"/>
<rect x="96" y="40" width="8" height="8"/>
<rect x="112" y="40" width="8" height="8"/>
<rect x="144" y="40" width="8" height="8"/>
<rect x="152" y="40" width="8" height="8"/>
<rect x="160" y="40" width="8" height="8"/>
<rect x="184" y="40" width="8" height="8"/>
<rect x="200" y="40" width="8" height="8"/>
<rect x="208" y="40" width="8" height="8"/>
<rect x="216" y="40" width="8" height="8"/>
<rect x="232" y="40" width="8" height="8"/>
<rect x="8" y="48" width="8" height="8"/>
<rect x="56" y="48" width="8" height="8"/>
<rect x="80" y="48" width="8" height="8"/>
<rect x="104" y="48" width="8" height="8"/>
<rect x="120" y="48" width="8" height="8"/>
<rect x="144" y="48" width="8" height="8"/>
<rect x="152" y="48" width="8" height="8"/>
<rect x="160" y="48" width="8" height="8"/>
<rect x="168" y="48" width="8" height="8"/>
<rect x="184" y="48" width="8" height="8"/>
<rect x="232" y="48" width="8" height="8"/>
<rect x="8" y="56" width="8" height="8"/>
<rect x="16" y="56" width="8" height="8"/>
<rect x="24" y="56" width="8" height="8"/>
<rect x="32" y="56" width="8" height="8"/>
<rect x="40" y="56" width="8" height="8"/>
<rect x="48" y="56" width="8" height="8"/>
<rect x="56" y="56" width="8" height="8"/>
<rect x="72" y="56" width="8" height="8"/>
<rect x="88" y="56" width="8" height="8"/>
<rect x="104" y="56" width="8" height="8"/>
<rect x="120" y="56" width="8" height="8"/>
<rect x="136" y="56" width="8" height="8"/>
<rect x="152" y="56" width="8" height="8"/>
<rect x="168" y="56" width="8" height="8"/>
<rect x="184" y="56" width="8" height="8"/>
<rect x="192" y="56" width="8" height="8"/>
<rect x="200" y="56" width="8" height="8"/>
<rect x="208" y="56" width="8" height="8"/>
<rect x="216" y="56" width="8" height="8"/>
<rect x="224" y="56" width="8" height="8"/>
<rect x="232" y="56" width="8" height="8"/>
<rect x="80" y="64" width="8" height="8"/>
<rect x="96" y="64" width="8" height="8"/>
<rect x="112" y="64" width="8" height="8"/>
<rect x="120" y="64" width="8" height="8"/>
<rect x="144" y="64" width="8" height="8"/>
<rect x="160" y="64" width="8" height="8"/>
<rect x="8" y="72" width="8" height="8"/>
<rect x="16" y="72" width="8" height="8"/>
<rect x="24" y="72" width="8" height="8"/>
<rect x="32" y="72" width="8" height="8"/>
<rect x="56" y="72" width="8" height="8"/>
<rect x="72" y="72" width="8" height="8"/>
<rect x="112" y="72" width="8" height="8"/>
<rect x="120" y="72" width="8" height="8"/>
<rect x="136" y="72" width="8" height="8"/>
<rect x="144" y="72" width="8" height="8"/>
<rect x="152" y="72" width="8" height="8"/>
<rect x="176" y="72" width="8" height="8"/>
<rect x="200" y="72" width="8" height="8"/>
<rect x="208" y="72" width="8" height="8"/>
<rect x="216" y="72" width="8" height="8"/>
<rect x="232" y="72" width="8" height="8"/>
<rect x="64" y="80" width="8" height="8"/>
<rect x="80" y="80" width="8" height="8"/>
<rect x="128" y="80" width="8" height="8"/>
<rect x="136" y="80" width="8" height="8"/>
<rect x="152" y="80" width="8" height="8"/>
<rect x="160" y="80" width="8" height="8"/>
<rect x="168" y="80" width="8" height="8"/>
<rect x="184" y="80" width="8" height="8"/>
<rect x="192" y="80" width="8" height="8"/>
<rect x="200" y="80" width="8" height="8"/>
<rect x="232" y="80" width="8" height="8"/>
<rect x="16" y="88" width="8" height="8"/>
<rect x="32" y="88" width="8" height="8"/>
<rect x="48" y="88" width="8" height="8"/>
<rect x="56" y="88" width="8" height="8"/>
<rect x="64" y="88" width="8" height="8"/>
<rect x="120" y="88" width="8" height="8"/>
<rect x="128" y="88" width="8" height="8"/>
<rect x="144" y="88" width="8" height="8"/>
<rect x="152" y="88" width="8" height="8"/>
<rect x="216" y="88" width="8" height="8"/>
<rect x="224" y="88" width="8" height="8"/>
<rect x="8" y="96" width="8" height="8"/>
<rect x="16" y="96" width="8" height="8"/>
<rect x="32" y="96" width="8" height="8"/>
<rect x="40" y="96" width="8" height="8"/>
<rect x="72" y="96" width="8" height="8"/>
<rect x="96" y="96" width="8" height="8"/>
<rect x="104" y="96" width="8" height="8"/>
<rect x="112" y="96" width="8" height="8"/>
<rect x="120" y="96" width="8" height="8"/>
<rect x="128" y="96" width="8" height="8"/>
<rect x="152" y="96" width="8" height="8"/>
<rect x="168" y="96" width="8" height="8"/>
<rect x="176" y="96" width="8" height="8"/>
<rect x="192" y="96" width="8" height="8"/>
<rect x="200" y="96" width="8" height="8"/>
<rect x="232" y="96" width="8" height="8"/>
<rect x="8" y="104" width="8" height="8"/>
<rect x="24" y="104" width="8" height="8"/>
<rect x="40" y="104" width="8" height="8"/>
<rect x="56" y="104" width="8" height="8"/>
<rect x="64" y="104" width="8" height="8"/>
<rect x="80" y="104" width="8" height="8"/>
<rect x="96" y="104" width="8" height="8"/>
<rect x="144" y="104" width="8" height="8"/>
<rect x="160" y="104" width="8" height="8"/>
<rect x="208" y="104" width="8" height="8"/>
<rect x="216" y="104" width="8" height="8"/>
<rect x="8" y="112" width="8" height="8"/>
<rect x="24" y="112" width="8" height="8"/>
<rect x="32" y="112" width="8" height="8"/>
<rect x="80" y="112" width="8" height="8"/>
<rect x="88" y="112" width="8" height="8"/>
<rect x="96" y="112" width="8" height="8"/>
<rect x="112" y="112" width="8" height="8"/>
<rect x="144" y="112" width="8" height="8"/>
<rect x="152" y="112" width="8" height="8"/>
<rect x="160" y="112" width="8" height="8"/>
<rect x="176" y="112" width="8" height="8"/>
<rect x="184" y="112" width="8" height="8"/>
<rect x="192" y="112" width="8" height="8"/>
<rect x="216" y="112" width="8" height="8"/>
<rect x="224" y="112" width="8" height="8"/>
<rect x="232" y="112" width="8" height="8"/>
<rect x="8" y="120" width="8" height="8"/>
<rect x="16" y="120" width="8" height="8"/>
<rect x="24" y="120" width="8" height="8"/>
<rect x="32" y="120" width="8" height="8"/>
<rect x="48" y="120" width="8" height="8"/>
<rect x="56" y="120" width="8" height="8"/>
<rect x="88" y="120" width="8" height="8"/>
<rect x="104" y="120" width="8" height="8"/>
<rect x="120" y="120" width="8" height="8"/>
<rect x="136" y="120" width="8" height="8"/>
<rect x="144" y="120" width="8" height="8"/>
<rect x="160" y="120" width="8" height="8"/>
<rect x="176" y="120" width="8" height="8"/>
<rect x="184" y="120" width="8" height="8"/>
<rect x="200" y="120" width="8" height="8"/>
<rect x="216" y="120" width="8" height="8"/>
<rect x="224" y="120" width="8" height="8"/>
<rect x="232" y="120" width="8" height="8"/>
<rect x="8" y="128" width="8" height="8"/>
<rect x="24" y="128" width="8" height="8"/>
<rect x="32" y="128" width="8" height="8"/>
<rect x="40" y="128" width="8" height="8"/>
<rect x="64" y="128" width="8" height="8"/>
<rect x="72" y="128" width="8" height="8"/>
<rect x="88" y="128" width="8" height="8"/>
<rect x="104" y="128" width="8" height="8"/>
<rect x="112" y="128" width="8" height="8"/>
<rect x="128" y="128" width="8" height="8"/>
<rect x="152" y="128" width="8" height="8"/>
<rect x="160" y="128" width="8" height="8"/>
<rect x="176" y="128" width="8" height="8"/>
<rect x="200" y="128" width="8" height="8"/>
<rect x="224" y="128" width="8" height="8"/>
<rect x="8" y="136" width="8" height="8"/>
<rect x="16" y="136" width="8" height="8"/>
<rect x="32" y="136" width="8" height="8"/>
<rect x="40" y="136" width="8" height="8"/>
<rect x="56" y="136" width="8" height="8"/>
<rect x="80" y="136" width="8" height="8"/>
<rect x="96" y="136" width="8" height="8"/>
<rect x="136" y="136" width="8" height="8"/>
<rect x="152" y="136" width="8" height="8"/>
<rect x="168" y="136" width="8" height="8"/>
<rect x="176" y="136" width="8" height="8"/>
<rect x="200" y="136" width="8" height="8"/>
<rect x="208" y="136" width="8" height="8"/>
<rect x="224" y="136" width="8" height="8"/>
<rect x="16" y="144" width="8" height="8"/>
<rect x="40" y="144" width="8" height="8"/>
<rect x="48" y="144" width="8" height="8"/>
<rect x="64" y="144" width="8" height="8"/>
<rect x="80" y="144" width="8" height="8"/>
<rect x="88" y="144" width="8" height="8"/>
<rect x="104" y="144" width="8" height="8"/>
<rect x="112" y="144" width="8" height="8"/>
<rect x="128" y="144" width="8" height="8"/>
<rect x="168" y="144" width="8" height="8"/>
<rect x="192" y="144" width="8" height="8"/>
<rect x="208" y="144" width="8" height="8"/>
<rect x="216" y="144" width="8" height="8"/>
<rect x="224" y="144" width="8" height="8"/>
<rect x="8" y="152" width="8" height="8"/>
<rect x="24" y="152" width="8" height="8"/>
<rect x="32" y="152" width="8" height="8"/>
<rect x="40" y="152" width="8" height="8"/>
<rect x="56" y="152" width="8" height="8"/>
<rect x="72" y="152" width="8" height="8"/>
<rect x="88" y="152" width="8" height="8"/>
<rect x="96" y="152" width="8" height="8"/>
<rect x="104" y="152" width="8" height="8"/>
<rect x="128" y="152" width="8" height="8"/>
<rect x="144" y="152" width="8" height="8"/>
<rect x="152" y="152" width="8" height="8"/>
<rect x="168" y="152" width="8" height="8"/>
<rect x="184" y="152" width="8" height="8"/>
<rect x="192" y="152" width="8" height="8"/>
<rect x="200" y="152" width="8" height="8"/>
<rect x="216" y="152" width="8" height="8"/>
<rect x="40" y="160" width="8" height="8"/>
<rect x="48" y="160" width="8" height="8"/>
<rect x="72" y="160" width="8" height="8"/>
<rect x="88" y="160" width="8" height="8"/>
<rect x="104" y="160" width="8" height="8"/>
<rect x="144" y="160" width="8" height="8"/>
<rect x="152" y="160" width="8" height="8"/>
<rect x="176" y="160" width="8" height="8"/>
<rect x="184" y="160" width="8" height="8"/>
<rect x="216" y="160" width="8" height="8"/>
<rect x="16" y="168" width="8" height="8"/>
<rect x="32" y="168" width="8" height="8"/>
<rect x="48" y="168" width="8" height="8"/>
<rect x="56" y="168" width="8" height="8"/>
<rect x="72" y="168" width="8" height="8"/>
<rect x="80" y="168" width="8" height="8"/>
<rect x="96" y="168" width="8" height="8"/>
<rect x="104" y="168" width="8" height="8"/>
<rect x="112" y="168" width="8" height="8"/>
<rect x="144" y="168" width="8" height="8"/>
<rect x="152" y="168" width="8" height="8"/>
<rect x="168" y="168" width="8" height="8"/>
<rect x="176" y="168" width="8" height="8"/>
<rect x="184" y="168" width="8" height="8"/>
<rect x="192" y="168" width="8" height="8"/>
<rect x="200" y="168" width="8" height="8"/>
<rect x="208" y="168" width="8" height="8"/>
<rect x="216" y="168" width="8" height="8"/>
<rect x="72" y="176" width="8" height="8"/>
<rect x="88" y="176" width="8" height="8"/>
<rect x="104" y="176" width="8" height="8"/>
<rect x="112" y="176" width="8" height="8"/>
<rect x="120" y="176" width="8" height="8"/>
<rect x="136" y="176" width="8" height="8"/>
<rect x="152" y="176" width="8" height="8"/>
<rect x="168" y="176" width="8" height="8"/>
<rect x="200" y="176" width="8" height="8"/>
<rect x="208" y="176" width="8" height="8"/>
<rect x="216" y="176" width="8" height="8"/>
<rect x="224" y="176" width="8" height="8"/>
<rect x="232" y="176" width="8" height="8"/>
<rect x="8" y="184" width="8" height="8"/>
<rect x="16" y="184" width="8" height="8"/>
<rect x="24" y="184" width="8" height="8"/>
<rect x="32" y="184" width="8" height="8"/>
<rect x="40" y="184" width="8" height="8"/>
<rect x="48" y="184" width="8" height="8"/>
<rect x="56" y="184" width="8" height="8"/>
<rect x="80" y="184" width="8" height="8"/>
<rect x="88" y="184" width="8" height="8"/>
<rect x="96" y="184" width="8" height="8"/>
<rect x="104" y="184" width="8" height="8"/>
<rect x="112" y="184" width="8" height="8"/>
<rect x="136" y="184" width="8" height="8"/>
<rect x="144" y="184" width="8" height="8"/>
<rect x="152" y="184" width="8" height="8"/>
<rect x="160" y="184" width="8" height="8"/>
<rect x="168" y="184" width="8" height="8"/>
<rect x="184" y="184" width="8" height="8"/>
<rect x="200" y="184" width="8" height="8"/>
<rect x="208" y="184" width="8" height="8"/>
<rect x="224" y="184" width="8" height="8"/>
<rect x="8" y="192" width="8" height="8"/>
<rect x="56" y="192" width="8" height="8"/>
<rect x="80" y="192" width="8" height="8"/>
<rect x="136" y="192" width="8" height="8"/>
<rect x="152" y="192" width="8" height="8"/>
<rect x="160" y="192" width="8" height="8"/>
<rect x="168" y="192" width="8" height="8"/>
<rect x="200" y="192" width="8" height="8"/>
<rect x="208" y="192" width="8" height="8"/>
<rect x="224" y="192" width="8" height="8"/>
<rect x="232" y="192" width="8" height="8"/>
<rect x="8" y="200" width="8" height="8"/>
<rect x="24" y="200" width="8" height="8"/>
<rect x="32" y="200" width="8" height="8"/>
<rect x="40" y="200" width="8" height="8"/>
<rect x="56" y="200" width="8" height="8"/>
<rect x="104" y="200" width="8" height="8"/>
<rect x="120" y="200" width="8" height="8"/>
<rect x="128" y="200" width="8" height="8"/>
<rect x="144" y="200" width="8" height="8"/>
<rect x="168" y="200" width="8" height="8"/>
<rect x="176" y="200" width="8" height="8"/>
<rect x="184" y="200" width="8" height="8"/>
<rect x="192" y="200" width="8" height="8"/>
<rect x="200" y="200" width="8" height="8"/>
<rect x="216" y="200" width="8" height="8"/>
<rect x="224" y="200" width="8" height="8"/>
<rect x="8" y="208" width="8" height="8"/>
<rect x="24" y="208" width="8" height="8"/>
<rect x="32" y="208" width="8" height="8"/>
<rect x="40" y="208" width="8" height="8"/>
<rect x="56" y="208" width="8" height="8"/>
<rect x="72" y="208" width="8" height="8"/>
<rect x="88" y="208" width="8" height="8"/>
<rect x="96" y="208" width="8" height="8"/>
<rect x="104" y="208" width="8" height="8"/>
<rect x="120" y="208" width="8" height="8"/>
<rect x="128" y="208" width="8" height="8"/>
<rect x="136" y="208" width="8" height="8"/>
<rect x="160" y="208" width="8" height="8"/>
<rect x="168" y="208" width="8" height="8"/>
<rect x="176" y="208" width="8" height="8"/>
<rect x="200" y="208" width="8" height="8"/>
<rect x="208" y="208" width="8" height="8"/>
<rect x="232" y="208" width="8" height="8"/>
<rect x="8" y="216" width="8" height="8"/>
<rect x="24" y="216" width="8" height="8"/>
<rect x="32" y="216" width="8" height="8"/>
<rect x="40" y="216" width="8" height="8"/>
<rect x="56" y="216" width="8" height="8"/>
<rect x="72" y="216" width="8" height="8"/>
<rect x="80" y="216" width="8" height="8"/>
<rect x="88" y="216" width="8" height="8"/>
<rect x="96" y="216" width="8" height="8"/>
<rect x="112" y="216" width="8" height="8"/>
<rect x="136" y="216" width="8" height="8"/>
<rect x="152" y="216" width="8" height="8"/>
<rect x="160" y="216" width="8" height="8"/>
<rect x="168" y="216" width="8" height="8"/>
<rect x="176" y="216" width="8" height="8"/>
<rect x="192" y="216" width="8" height="8"/>
<rect x="216" y="216" width="8" height="8"/>
<rect x="232" y="216" width="8" height="8"/>
<rect x="8" y="224" width="8" height="8"/>
<rect x="56" y="224" width="8" height="8"/>
<rect x="72" y="224" width="8" height="8"/>
<rect x="80" y="224" width="8" height="8"/>
<rect x="88" y="224" width="8" height="8"/>
<rect x="96" y="224" width="8" height="8"/>
<rect x="120" y="224" width="8" height="8"/>
<rect x="136" y="224" width="8" height="8"/>
<rect x="152" y="224" width="8" height="8"/>
<rect x="160" y="224" width="8" height="8"/>
<rect x="168" y="224" width="8" height="8"/>
<rect x="176" y="224" width="8" height="8"/>
<rect x="192" y="224" width="8" height="8"/>
<rect x="208" y="224" width="8" height="8"/>
<rect x="224" y="224" width="8" height="8"/>
<rect x="8" y="232" width="8" height="8"/>
<rect x="16" y="232" width="8" height="8"/>
<rect x="24" y="232" width="8" height="8"/>
<rect x="32" y="232" width="8" height="8"/>
<rect x="40" y="232" width="8" height="8"/>
<rect x="48" y="232" width="8" height="8"/>
<rect x="56" y="232" width="8" height="8"/>
<rect x="72" y="232" width="8" height="8"/>
<rect x="88" y="232" width="8" height="8"/>
<rect x="104" y="232" width="8" height="8"/>
<rect x="120" y="232" width="8" height="8"/>
<rect x="128" y="232" width="8" height="8"/>
<rect x="160" y="232" width="8" height="8"/>
<rect x="168" y="232" width="8" height="8"/>
<rect x="184" y="232" width="8" height="8"/>
<rect x="200" y="232" width="8" height="8"/>
<rect x="224" y="232" width="8" height="8"/>
</g>
</svg>
